<svg width="40" height="40" viewBox="0 0 40 40" fill="none" xmlns="http://www.w3.org/2000/svg">
<circle cx="20" cy="20" r="20" fill="url(#paint0_linear_108_435)"/>
<path d="M26.84 17.88V19.26H13.54V17.88H22.28C22.7867 17.6 23.04 17.26 23.04 16.86C23.04 16.2867 22.7867 15.8267 22.28 15.48C21.7867 15.1333 21.0333 14.96 20.02 14.96C18.6467 14.96 17.32 15.26 16.04 15.86L15.44 13.82C16.12 13.4867 16.8467 13.2333 17.62 13.06C18.4067 12.8733 19.18 12.78 19.94 12.78C21.1133 12.78 22.1267 12.96 22.98 13.32C23.8333 13.6667 24.4867 14.16 24.94 14.8C25.3933 15.4267 25.62 16.1533 25.62 16.98C25.62 17.3133 25.58 17.6133 25.5 17.88H26.84ZM13.54 20.64H26.84V22.02H18.28C17.64 22.3533 17.32 22.7533 17.32 23.22C17.32 23.7667 17.5733 24.2067 18.08 24.54C18.5867 24.8733 19.36 25.04 20.4 25.04C21.28 25.04 22.14 24.92 22.98 24.68C23.8333 24.44 24.5467 24.12 25.12 23.72L25.84 25.74C25.0667 26.2067 24.2067 26.5733 23.26 26.84C22.3267 27.0933 21.3933 27.22 20.46 27.22C19.26 27.22 18.2333 27.0467 17.38 26.7C16.5267 26.3533 15.8733 25.8667 15.42 25.24C14.9667 24.6133 14.74 23.88 14.74 23.04C14.74 22.6933 14.8067 22.3533 14.94 22.02H13.54V20.64Z" fill="white"/>
<defs>
<linearGradient id="paint0_linear_108_435" x1="39.469" y1="38.3784" x2="6.87084" y2="34.8522" gradientUnits="userSpaceOnUse">
<stop stop-color="#2C0DEC"/>
<stop offset="1" stop-color="#8977FC"/>
</linearGradient>
</defs>
</svg>
